<?xml version="1.0" standalone="no"?>
<!DOCTYPE svg PUBLIC "-//W3C//DTD SVG 1.1//EN" "http://www.w3.org/Graphics/SVG/1.1/DTD/svg11.dtd" >
<svg xmlns="http://www.w3.org/2000/svg">
<metadata>Generated by IcoMoon</metadata>
<defs>
<font id="icomoon" horiz-adv-x="1024">
<font-face units-per-em="1024" ascent="960" descent="-64" />
<missing-glyph horiz-adv-x="1024" />
<glyph unicode="&#x20;" horiz-adv-x="512" d="" />
<glyph unicode="&#xe900;" glyph-name="alarm" horiz-adv-x="1057" d="M1057.032 766.101c-0.057 107.045-86.847 193.799-193.899 193.799-45.452 0-87.251-15.639-120.31-41.829l0.403 0.308c122.659-53.644 218.542-149.527 270.881-268.849l1.305-3.337c26.095 33.032 41.621 74.323 41.621 119.907zM528.516 910.452c-264.296-0.305-478.432-214.629-478.432-478.967 0-127.038 49.458-242.524 130.169-328.254l-0.227 0.244-66.395-66.395c-9.715-9.070-15.77-21.953-15.77-36.25 0-27.365 22.184-49.548 49.548-49.548 14.297 0 27.18 6.055 36.224 15.741l0.027 0.029 71.35 71.35c76.25-53.768 171.086-85.938 273.436-85.938 102.552 0 197.562 32.297 275.411 87.274l-1.502-1.006 72.010-72.010c8.876-8.876 21.139-14.367 34.684-14.367 27.090 0 49.050 21.961 49.050 49.050 0 13.545-5.49 25.807-14.367 34.684v0l-67.055 67.055c80.67 85.527 130.253 201.144 130.253 328.341 0 264.331-214.124 478.651-478.381 478.967h-0.031zM908.387 431.484c0-209.797-170.074-379.871-379.871-379.871s-379.871 170.074-379.871 379.871v0c0 209.797 170.074 379.871 379.871 379.871s379.871-170.074 379.871-379.871v0zM776.258 431.484c0 27.417-22.132 49.548-49.548 49.548h-148.645v214.71c0 27.365-22.184 49.548-49.548 49.548s-49.548-22.184-49.548-49.548v0-264.258c0-27.417 22.132-49.548 49.548-49.548h198.194c27.417 0 49.548 22.132 49.548 49.548zM42.612 639.257c-25.75 33.112-41.282 75.28-41.282 121.077 0 109.459 88.734 198.194 198.194 198.194 45.713 0 87.812-15.476 121.342-41.475l-0.452 0.337c-125.44-54.662-223.471-152.692-276.805-274.725l-1.327-3.406z" />
<glyph unicode="&#xe901;" glyph-name="arrow-down" horiz-adv-x="1877" d="M267.947 915.627l670.72-670.72 679.253 679.253c22.796 21.285 53.502 34.354 87.26 34.354 70.692 0 128-57.308 128-128 0-33.758-13.069-64.464-34.423-87.335l0.069 0.074-768-768c-23.040-23.893-56.32-39.253-92.16-39.253h-0.853c-35.84 0-68.267 15.36-92.16 39.253l-768 768h0.853c-20.677 22.662-33.343 52.945-33.343 86.187 0 70.727 57.336 128.063 128.063 128.063 37.486 0 71.21-16.106 94.63-41.775l0.090-0.101z" />
<glyph unicode="&#xe902;" glyph-name="arrow-left" horiz-adv-x="559" d="M534.342 82.153l-365.847 365.847 370.502 370.502c11.61 12.434 18.738 29.183 18.738 47.597 0 38.56-31.259 69.818-69.818 69.818-18.414 0-35.162-7.128-47.637-18.776l0.041 0.037-418.909-418.909c-13.033-12.567-21.411-30.255-21.411-50.269v-0.465c0-19.549 8.378-37.236 21.411-49.804l418.909-418.909c12.532-12.071 29.601-19.506 48.407-19.506 38.544 0 69.794 31.234 69.818 69.773v0.002c0 21.411-9.309 40.029-24.204 53.062z" />
<glyph unicode="&#xe903;" glyph-name="arrow-right" horiz-adv-x="559" d="M24.204 82.153l365.847 365.847-370.502 370.502c-11.61 12.434-18.738 29.183-18.738 47.597 0 38.56 31.259 69.818 69.818 69.818 18.414 0 35.162-7.128 47.637-18.776l-0.041 0.037 418.909-418.909c13.033-12.567 21.411-30.255 21.411-50.269v-0.465c0-19.549-8.378-37.236-21.411-49.804l-418.909-418.909c-12.361-11.279-28.879-18.187-47.011-18.187-38.578 0-69.852 31.274-69.852 69.852 0 20.447 8.785 38.842 22.787 51.616l0.055 0.049z" />
<glyph unicode="&#xe904;" glyph-name="arrow-up" horiz-adv-x="1877" d="M267.947-18.773l670.72 669.867 679.253-679.253c22.796-21.285 53.502-34.354 87.26-34.354 70.692 0 128 57.308 128 128 0 33.758-13.069 64.464-34.423 87.335l0.069-0.074-768 768c-22.917 24.199-55.273 39.257-91.147 39.257-0.356 0-0.712-0.001-1.067-0.004h-0.799c-35.84 0-68.267-14.507-92.16-39.253l-768-768h0.853c-22.129-22.975-35.761-54.269-35.761-88.747 0-70.665 57.262-127.955 127.917-128h0.004c39.253 0 73.387 17.92 97.28 45.227z" />
<glyph unicode="&#xe905;" glyph-name="book" d="M993.92 131.52l-462.72-191.68c-5.76-2.56-12.16-3.84-18.88-3.84s-13.12 1.28-19.2 3.84l-462.72 191.68c-17.9 7.194-30.323 24.377-30.4 44.47v736.010c0 0.024 0 0.052 0 0.081 0 26.51 21.49 48 48 48 6.578 0 12.848-1.323 18.556-3.718l-0.316 0.118v-0.32h0.64l445.12-184.32 445.44 184.64c5.48 2.361 11.86 3.734 18.56 3.734 26.51 0 48-21.49 48-48 0-0.075 0-0.15-0.001-0.225v0.012l0.32-736c-0.021-20.033-12.312-37.19-29.76-44.364l-0.32-0.116zM464 688l-368 152.32v-632.32l368-152.32zM928 840.32l-368-152.32v-632.32l368 152.32zM636.16 619.84l176 80c5.828 2.703 12.65 4.28 19.84 4.28 26.576 0 48.12-21.544 48.12-48.12 0-19.386-11.464-36.095-27.982-43.716l-0.298-0.124-176-80c-5.828-2.703-12.65-4.28-19.84-4.28-26.576 0-48.12 21.544-48.12 48.12 0 19.386 11.464 36.095 27.982 43.716l0.298 0.124zM636.16 443.84l176 80c5.828 2.703 12.65 4.28 19.84 4.28 26.576 0 48.12-21.544 48.12-48.12 0-19.386-11.464-36.095-27.982-43.716l-0.298-0.124-176-80v0.32c-5.442-2.324-11.773-3.675-18.42-3.675-26.51 0-48 21.49-48 48 0 18.766 10.769 35.017 26.464 42.909l0.276 0.126zM636.16 267.84l176 80c5.828 2.703 12.65 4.28 19.84 4.28 26.576 0 48.12-21.544 48.12-48.12 0-19.386-11.464-36.095-27.982-43.716l-0.298-0.124-176-80c-5.828-2.703-12.65-4.28-19.84-4.28-26.576 0-48.12 21.544-48.12 48.12 0 19.386 11.464 36.095 27.982 43.716l0.298 0.124zM192 704c7.040 0 13.76-1.6 19.84-4.16l176-80c16.817-7.745 28.28-24.454 28.28-43.84 0-26.576-21.544-48.12-48.12-48.12-7.19 0-14.012 1.577-20.138 4.404l0.298-0.124-176 80c-16.908 7.673-28.456 24.409-28.456 43.841 0 26.51 21.49 48 48 48 0.104 0 0.208 0 0.312-0.001h-0.016zM192 528c7.040 0 13.76-1.6 19.84-4.16l176-80c17.515-7.417 29.58-24.462 29.58-44.325 0-26.51-21.49-48-48-48-7.744 0-15.059 1.834-21.536 5.091l0.276-0.126v-0.32l-176 80c-16.908 7.673-28.456 24.409-28.456 43.841 0 26.51 21.49 48 48 48 0.104 0 0.208 0 0.312-0.001h-0.016zM144 304c0-19.52 11.52-36.16 28.16-43.84l176-80c5.828-2.703 12.65-4.28 19.84-4.28 26.576 0 48.12 21.544 48.12 48.12 0 19.386-11.464 36.095-27.982 43.716l-0.298 0.124-176 80c-5.827 2.711-12.649 4.292-19.84 4.292-26.51 0-48-21.49-48-48 0-0.047 0-0.093 0-0.139v0.007z" />
<glyph unicode="&#xe906;" glyph-name="bullseye" d="M512-64c-282.77 0-512 229.23-512 512s229.23 512 512 512v0c282.77 0 512-229.23 512-512s-229.23-512-512-512v0zM512 864c-229.75 0-416-186.25-416-416s186.25-416 416-416v0c229.75 0 416 186.25 416 416s-186.25 416-416 416v0zM512 144c-167.895 0-304 136.105-304 304s136.105 304 304 304v0c167.895 0 304-136.105 304-304s-136.105-304-304-304v0zM512 656c-114.875 0-208-93.125-208-208s93.125-208 208-208v0c114.875 0 208 93.125 208 208s-93.125 208-208 208v0zM608 448c0 53.019-42.981 96-96 96s-96-42.981-96-96v0c0-53.019 42.981-96 96-96s96 42.981 96 96v0z" />
<glyph unicode="&#xe907;" glyph-name="comments" horiz-adv-x="1161" d="M643.072 116.224c-39.595 0-77.824 11.605-114.688 17.067-150.187-189.781-385.707-152.235-385.707-152.235 166.571 78.507 163.84 209.579 133.803 226.645-131.072 77.141-209.579 193.877-209.579 324.949 0 232.107 254.635 419.157 576.171 419.157 320.853 0 516.779-187.051 516.779-419.157 0-231.424-195.925-416.427-516.779-416.427zM357.717 626.859c-56.554 0-102.4-45.846-102.4-102.4s45.846-102.4 102.4-102.4v0c56.554 0 102.4 45.846 102.4 102.4s-45.846 102.4-102.4 102.4v0zM613.717 626.859c-56.554 0-102.4-45.846-102.4-102.4s45.846-102.4 102.4-102.4v0c56.554 0 102.4 45.846 102.4 102.4s-45.846 102.4-102.4 102.4v0zM869.717 626.859c-56.554 0-102.4-45.846-102.4-102.4s45.846-102.4 102.4-102.4v0c56.554 0 102.4 45.846 102.4 102.4s-45.846 102.4-102.4 102.4v0z" />
<glyph unicode="&#xe908;" glyph-name="computer" horiz-adv-x="1170" d="M1097.143 118.857h-347.429v-91.429l73.143-73.143v-18.286h-475.429v18.286l73.143 73.143v91.429h-347.429c-30.297 0-54.857 24.56-54.857 54.857v0 731.429c0 30.354 24.503 54.857 54.857 54.857h1024c30.354 0 54.857-24.503 54.857-54.857v-731.429c0-30.354-24.503-54.857-54.857-54.857zM1078.857 886.857h-987.429v-621.714h987.429zM420.571 576c0-14.994 6.217-28.891 16.091-38.766l73.143-73.143c9.925-9.913 23.629-16.043 38.766-16.043s28.841 6.13 38.766 16.044l146.285 146.285c10.756 10.042 17.46 24.305 17.46 40.134 0 30.297-24.56 54.857-54.857 54.857-15.829 0-30.092-6.704-40.105-17.428l-0.029-0.032-107.52-107.52-34.377 34.377c-9.925 9.913-23.629 16.043-38.766 16.043-30.28 0-54.83-24.533-54.857-54.806v-0.003z" />
<glyph unicode="&#xe909;" glyph-name="dribbble" horiz-adv-x="964" d="M954.127 574.494c-26.154 126.89-99.876 233.1-201.29 301.302l-1.703 1.079c-74.876 51.676-167.572 82.541-267.477 82.541-34.76 0-68.648-3.737-101.283-10.83l3.132 0.571c-221.213-44.399-385.518-237.111-385.518-468.198 0-1.211 0.005-2.421 0.014-3.63l-0.001 0.185c0.353-100.662 31.134-194.064 83.619-271.571l-1.096 1.717c88.44-128.172 234.050-211.413 399.173-212.63l0.187-0.001c0.331-0.001 0.722-0.001 1.114-0.001 67.271 0 131.282 13.959 189.295 39.139l-3.077-1.189c87.888 37.32 160.009 97.429 210.956 172.994l1.073 1.688c33.185 49.224 58.255 106.95 71.69 169.010l0.592 3.263c6.292 29.244 9.896 62.841 9.896 97.28s-3.604 68.036-10.454 100.435l0.558-3.155zM893.289 481.129c-6.024 1.205-145.167 31.322-286.72 13.854l-9.035 21.082-27.106 59.633c162.635 66.259 228.894 162.033 228.894 162.635 57.68-69.338 93.010-159.055 93.965-256.997l0.002-0.208zM753.544 785.92c-0.602-1.205-59.633-90.955-215.040-148.781-50.679 92.357-101.34 170.714-156.897 245.204l3.9-5.468c29.193 7.425 62.706 11.686 97.214 11.686 104.285 0 199.48-38.915 271.857-103.016l-0.431 0.375zM381.892 876.273v0zM306.598 849.167c5.421-7.228 81.318-110.231 152.395-236.725-197.572-52.405-369.242-50.598-379.482-50.598 27.633 128.032 111.875 232.080 224.618 286.253l2.469 1.069zM70.475 477.515v12.649c7.228 0 210.824-4.819 422.852 58.428 12.047-22.889 22.889-46.381 33.129-69.873l-16.264-4.819c-141.347-51.635-256.631-146.477-332.711-268.319l-1.595-2.74c-65.394 72.3-105.412 168.628-105.412 274.302 0 0.13 0 0.261 0 0.391v-0.021zM481.882 65.506c-0.048 0-0.105 0-0.161 0-95.804 0-183.927 32.892-253.69 87.999l0.863-0.658s78.908 172.273 322.861 257.205l3.012 0.602c57.826-150.588 81.92-276.48 87.944-312.621-49.393-20.48-103.605-32.527-160.828-32.527zM711.981 135.981c-4.216 24.696-26.504 145.769-80.113 293.948 132.518 21.082 247.567-15.059 256.602-18.071-19.096-115.502-84.003-213.020-175.058-274.959l-1.431-0.919z" />
<glyph unicode="&#xe90a;" glyph-name="equalizer" horiz-adv-x="896" d="M848 432h-96c-26.51 0-48 21.49-48 48v0 192c0 26.56 21.44 48 48 48h96c26.56 0 48-21.44 48-48v-192c0-26.56-21.44-48-48-48zM752 912c0 26.51 21.49 48 48 48s48-21.49 48-48v0-144h-96zM496 176h-96c-26.51 0-48 21.49-48 48v0 192c0 26.56 21.44 48 48 48h96c26.56 0 48-21.44 48-48v-192c0-26.56-21.44-48-48-48zM400 912c0 26.51 21.49 48 48 48s48-21.49 48-48v0-400h-96zM144 304h-96c-26.51 0-48 21.49-48 48v0 192c0 26.56 21.44 48 48 48h96c26.56 0 48-21.44 48-48v-192c0-26.56-21.44-48-48-48zM48 912c0 26.51 21.49 48 48 48s48-21.49 48-48v0-272h-96zM144-16c0-26.51-21.49-48-48-48s-48 21.49-48 48v0 272h96zM496-16c0-26.51-21.49-48-48-48s-48 21.49-48 48v0 144h96zM848 384h-96v-400c0-26.51 21.49-48 48-48s48 21.49 48 48v0z" />
<glyph unicode="&#xe90b;" glyph-name="facebook" horiz-adv-x="542" d="M481.882 959.398v-155.407s-114.447 11.445-143.36-32.527c-15.661-24.094-6.024-93.967-7.831-144.565h151.793c-12.649-59.031-22.287-98.786-31.322-149.384h-121.073v-482.485h-210.824v480.075h-89.148v151.793h88.546c4.819 110.833 6.024 221.064 61.44 277.082 62.042 62.645 120.471 55.416 301.176 55.416z" />
<glyph unicode="&#xe90c;" glyph-name="geotag" horiz-adv-x="788" d="M393.846-56.123s-378.092 421.415-378.092 630.154c0 208.815 169.278 378.092 378.092 378.092s378.092-169.278 378.092-378.092v0c0-208.738-378.092-630.154-378.092-630.154zM393.846 826.092c-139.21 0-252.062-112.852-252.062-252.062s112.852-252.062 252.062-252.062v0c139.21 0 252.062 112.852 252.062 252.062s-112.852 252.062-252.062 252.062v0zM519.877 574.031c0 69.605-56.426 126.031-126.031 126.031s-126.031-56.426-126.031-126.031v0c0-69.605 56.426-126.031 126.031-126.031s126.031 56.426 126.031 126.031v0z" />
<glyph unicode="&#xe90d;" glyph-name="google-plus" horiz-adv-x="1092" d="M1092.267 706.048v68.267h-170.667v166.571h-68.267v-166.571h-170.667v-68.267h170.667v-166.571h68.267v166.571zM540.672 874.667l64.853 67.584h-288.085c-129.707 0-250.539-102.4-250.539-214.357 0-113.323 87.381-208.213 218.453-208.213 9.557 0 18.432-1.365 27.307-0.683-8.192-16.384-14.336-35.499-14.336-53.931 0-31.403 17.067-57.344 38.912-78.507l-49.835-0.683c-159.744 0-287.403-100.352-287.403-204.117 0-102.4 139.264-178.859 299.008-178.859 182.955 0 281.259 114.688 281.259 216.405 0 81.92-22.528 131.072-98.304 184.32-26.624 17.749-76.459 62.123-76.459 88.064 0 30.037 8.875 45.056 55.296 80.555 47.787 36.864 85.333 83.968 85.333 143.36 0 71.68-35.499 125.611-95.573 159.061zM389.803 347.648c60.075-40.96 102.4-63.488 114.688-110.592 2.731-9.557 4.096-19.115 4.096-29.355 0-82.603-54.613-138.581-210.261-138.581-110.592 0-189.781 60.757-189.781 143.36 0 80.555 98.987 148.139 209.579 146.773 25.259 0 49.835-4.096 71.68-11.605zM327.68 544.939c-74.411 2.048-144.725 81.92-157.013 177.493-13.653 95.573 36.181 168.619 110.592 166.571s148.139-78.507 161.109-174.763c12.288-95.573-40.96-171.349-114.688-169.301z" />
<glyph unicode="&#xe90e;" glyph-name="home" horiz-adv-x="1057" d="M1043.819 448.661l-184.981 184.981v144.681c0 27.365-22.184 49.548-49.548 49.548s-49.548-22.184-49.548-49.548v0-45.585l-194.89 194.89c-7.875 8.533-18.697 14.243-30.84 15.507l-0.21 0.018-2.312 0.33h-2.973c-13.874 0-26.426-5.946-35.675-15.195l-477.646-477.646c-9.23-9.022-14.954-21.597-14.954-35.51 0-27.414 22.224-49.638 49.638-49.638 13.502 0 25.745 5.391 34.693 14.137l443.945 444.275 445.275-444.945c8.447-6.902 19.352-11.085 31.234-11.085 27.365 0 49.548 22.184 49.548 49.548 0 11.882-4.182 22.787-11.155 31.323l0.070-0.089zM528.516 761.806l-429.419-429.419v-346.839c0-27.417 22.132-49.548 49.548-49.548h462.452v396.387h198.194v-396.387h99.097c27.417 0 49.548 22.132 49.548 49.548v346.839zM445.935 134.194h-198.194v198.194h198.194z" />
<glyph unicode="&#xe90f;" glyph-name="image" d="M976-64h-928c-26.51 0-48 21.49-48 48v0 928c0 26.56 21.44 48 48 48h928c26.56 0 48-21.44 48-48v-928c0-26.56-21.44-48-48-48zM928 864h-832v-832h832zM384 816c26.51 0 48-21.49 48-48s-21.49-48-48-48v0h-144v-144c0-26.51-21.49-48-48-48s-48 21.49-48 48v0 240zM144 320c0 26.51 21.49 48 48 48s48-21.49 48-48v0-144h144c26.51 0 48-21.49 48-48s-21.49-48-48-48v0h-240zM640 816h240v-240c0-26.51-21.49-48-48-48s-48 21.49-48 48v0 144h-144c-26.51 0-48 21.49-48 48s21.49 48 48 48v0zM592 128c0-26.56 21.44-48 48-48h240v240c0 26.51-21.49 48-48 48s-48-21.49-48-48v0-144h-144c-26.56 0-48-21.44-48-48z" />
<glyph unicode="&#xe910;" glyph-name="instagram" horiz-adv-x="964" d="M843.294-4.367h-722.824c0 0-0.001 0-0.002 0-66.322 0-120.127 53.594-120.469 119.836v722.857c-0.001 0.179-0.002 0.391-0.002 0.602 0 66.534 53.937 120.471 120.471 120.471 0.001 0 0.001 0 0.002 0h722.823c0 0 0.001 0 0.002 0 66.534 0 120.471-53.937 120.471-120.471 0-0.212-0.001-0.423-0.002-0.635v0.033-722.824c-0.342-66.275-54.147-119.868-120.469-119.868-0.001 0-0.001 0-0.002 0v0zM481.882 664.245c-74.617-0.106-138.965-43.96-168.779-107.284l-0.482-1.14-1.205-2.409-4.819-12.047-1.807-6.024c-3.404-9.331-6.142-20.308-7.73-31.653l-0.1-0.874-0.602-5.421-1.205-19.878c-0.003-0.375-0.004-0.818-0.004-1.262 0-103.128 83.602-186.729 186.729-186.729s186.729 83.602 186.729 186.729c0 7.448-0.436 14.795-1.284 22.016l0.084-0.876-0.602 5.421c-1.231 7.891-2.7 14.606-4.523 21.173l0.307-1.296-3.614 12.649c0 2.409-1.205 4.216-1.807 6.024-2.006 5.792-4.041 10.567-6.352 15.179l0.328-0.723c-30.296 64.463-94.644 108.318-169.247 108.424h-0.014zM855.341 802.184c0 26.614-21.575 48.188-48.188 48.188v0h-96.376c-26.614 0-48.188-21.575-48.188-48.188v0-96.376c0-26.504 21.685-47.586 48.188-47.586h96.376c0.001 0 0.002 0 0.004 0 26.402 0 47.845 21.233 48.184 47.554v0.032zM855.341 555.821h-88.546c6.693-23.438 10.541-50.357 10.541-78.175 0-163.008-132.144-295.153-295.153-295.153s-295.153 132.144-295.153 295.153c0 27.818 3.848 54.737 11.042 80.254l-0.501-2.079h-89.148v-404.179c0-26.504 21.685-47.586 48.188-47.586h650.541c0.001 0 0.002 0 0.004 0 26.402 0 47.845 21.233 48.184 47.554v0.032z" />
<glyph unicode="&#xe911;" glyph-name="line-graph" d="M976-64h-928c-26.51 0-48 21.49-48 48v0 928c0 26.56 21.44 48 48 48h928c26.56 0 48-21.44 48-48v-928c0-26.56-21.44-48-48-48zM928 864h-832v-832h832zM144 399.36c0-0.039 0-0.085 0-0.131 0-26.51 21.49-48 48-48 10.167 0 19.597 3.161 27.358 8.554l-0.158-0.104 100.16 62.72 213.12-141.76c7.676-5.511 17.261-8.813 27.618-8.813 10.549 0 20.298 3.426 28.195 9.226l-0.133-0.093 272 192c11.961 8.835 19.632 22.882 19.632 38.72 0 26.437-21.372 47.882-47.781 48h-0.011c-10.56 0-20.48-3.2-28.16-8.96l-244.48-172.8-212.16 141.44h-0.32c-7.491 5.068-16.727 8.090-26.668 8.090-9.316 0-18.013-2.654-25.374-7.248l0.202 0.118-128-80c-13.897-8.565-23.025-23.695-23.040-40.958v-0.002z" />
<glyph unicode="&#xe912;" glyph-name="magnifying-glass" d="M1012.622 41.244c0-0.111 0.001-0.242 0.001-0.374 0-51.841-42.026-93.867-93.867-93.867-26.014 0-49.556 10.582-66.557 27.676l-0.004 0.004-274.773 275.342c-54.585-32.739-120.438-52.101-190.814-52.101-207.365 0-375.467 168.102-375.467 375.467s168.102 375.467 375.467 375.467c207.365 0 375.467-168.102 375.467-375.467 0-70.376-19.362-136.229-53.049-192.524l0.948 1.71 275.342-274.773c17.067-17.067 27.307-40.391 27.307-66.56zM386.844 854.756c-155.523 0-281.6-126.077-281.6-281.6s126.077-281.6 281.6-281.6v0c155.523 0 281.6 126.077 281.6 281.6s-126.077 281.6-281.6 281.6v0z" />
<glyph unicode="&#xe913;" glyph-name="messages" horiz-adv-x="1058" d="M1007.213 355.672h-33.574v-83.934c0-3.357-0.336-6.883-1.007-10.072-0.504-2.35-1.343-4.532-2.014-6.715l-1.007-2.854c-0.671-1.847-1.847-3.693-2.854-5.372l-1.679-3.19c-1.679-2.35-3.525-4.532-5.708-6.715l-0.504-0.671c-8.972-8.902-21.282-14.451-34.887-14.604h-0.029l-0.671-0.168c-13.902 0.013-26.483 5.656-35.588 14.772l-119.524 119.524h-466.004c-27.813 0-50.361 22.547-50.361 50.361v0 503.607c0 27.813 22.547 50.361 50.361 50.361v0h705.049c27.813 0 50.361-22.547 50.361-50.361v0-503.607c0-27.813-22.547-50.361-50.361-50.361v0zM302.164 305.311c-55.627 0-100.721 45.094-100.721 100.721v0 352.525h-151.082c-27.813 0-50.361-22.547-50.361-50.361v0-570.754c0-27.813 22.547-50.361 50.361-50.361v0h67.148v-100.721c0-3.525 0.336-6.883 1.007-10.072 0.504-2.35 1.343-4.532 2.014-6.715l1.007-2.854c0.671-1.847 1.847-3.525 2.854-5.372 0.671-1.007 1.007-2.182 1.679-3.022 1.679-2.518 3.525-4.7 5.708-6.883l0.504-0.671c8.972-8.902 21.282-14.451 34.887-14.604h0.029l0.671-0.168c13.902 0.013 26.483 5.656 35.588 14.772l136.311 136.311h533.151c27.813 0 50.361 22.547 50.361 50.361v0 33.574c-27.078 0.065-51.634 10.804-69.696 28.231l0.030-0.029-106.597 106.093z" />
<glyph unicode="&#xe914;" glyph-name="picture" d="M1024 140.8c0-22.187-14.336-40.96-34.133-48.128v-57.344c20.173-7.178 34.355-26.108 34.355-48.35 0-28.277-22.923-51.2-51.2-51.2-22.242 0-41.171 14.182-48.238 33.997l-0.111 0.358h-57.344c-7.353-19.844-26.119-33.732-48.128-33.732s-40.775 13.887-48.013 33.378l-0.115 0.354h-57.344c-7.353-19.844-26.119-33.732-48.128-33.732s-40.775 13.887-48.013 33.378l-0.115 0.354h-57.344c-7.353-19.844-26.119-33.732-48.128-33.732s-40.775 13.887-48.013 33.378l-0.115 0.354h-57.344c-7.353-19.844-26.119-33.732-48.128-33.732s-40.775 13.887-48.013 33.378l-0.115 0.354h-57.344c-7.353-19.844-26.119-33.732-48.128-33.732s-40.775 13.887-48.013 33.378l-0.115 0.354h-57.344c-7.178-20.173-26.108-34.355-48.35-34.355-28.277 0-51.2 22.923-51.2 51.2 0 22.242 14.182 41.171 33.997 48.238l0.358 0.111v57.344c-20.011 7.225-34.069 26.026-34.133 48.12v0.008c0 22.187 14.336 40.96 34.133 48.128v57.344c-20.011 7.225-34.069 26.026-34.133 48.12v0.008c0 22.187 14.336 40.96 34.133 48.128v57.344c-20.011 7.225-34.069 26.026-34.133 48.12v0.008c0 22.187 14.336 40.96 34.133 48.128v57.344c-20.011 7.225-34.069 26.026-34.133 48.12v0.008c0 22.187 14.336 40.96 34.133 48.128v57.344c-20.011 7.225-34.069 26.026-34.133 48.12v0.008c0 22.187 14.336 40.96 34.133 48.128v57.344c-20.376 7.066-34.742 26.097-34.742 48.483 0 28.277 22.923 51.2 51.2 51.2 22.292 0 41.256-14.246 48.285-34.13l0.11-0.358h58.027c7.597 19.36 26.12 32.819 47.787 32.819s40.19-13.458 47.666-32.471l0.12-0.347h58.027c7.597 19.36 26.12 32.819 47.787 32.819s40.19-13.458 47.666-32.471l0.12-0.347h58.027c7.597 19.36 26.12 32.819 47.787 32.819s40.19-13.458 47.666-32.471l0.12-0.347h58.027c6.827 19.797 25.6 34.133 47.787 34.133s40.96-14.336 47.787-34.133h58.027c7.478 19.599 26.122 33.269 47.957 33.269s40.479-13.669 47.839-32.918l0.118-0.351h57.344c7.178 20.173 26.108 34.355 48.35 34.355 28.277 0 51.2-22.923 51.2-51.2 0-22.242-14.182-41.171-33.997-48.238l-0.358-0.111v-57.344c19.797-7.168 34.133-25.941 34.133-48.128s-14.336-40.96-34.133-48.128v-57.344c19.797-7.168 34.133-25.941 34.133-48.128s-14.336-40.96-34.133-48.128v-57.344c19.797-7.168 34.133-25.941 34.133-48.128s-14.336-40.96-34.133-48.128v-57.344c19.797-7.168 34.133-25.941 34.133-48.128s-14.336-40.96-34.133-48.128v-57.344c19.797-7.168 34.133-25.941 34.133-48.128zM887.467 823.467h-750.933v-750.933h750.933zM443.733 277.333l238.933 290.133 153.6-238.933v-204.8h-648.533l204.8 204.8zM443.733 618.667c0 56.554-45.846 102.4-102.4 102.4s-102.4-45.846-102.4-102.4v0c0-56.554 45.846-102.4 102.4-102.4s102.4 45.846 102.4 102.4v0z" />
<glyph unicode="&#xe915;" glyph-name="pinterest" horiz-adv-x="783" d="M351.774 332.348l-24.094-96.376c-7.831-31.925-15.059-63.849-26.504-93.365-19.878-48.188-44.574-94.569-77.101-132.518-21.685-25.299-16.866-15.059-24.094-13.854-4.216 1.205-4.819 6.024-6.024 13.252-4.819 38.551-1.205 82.522 0 125.892 3.012 48.791 13.252 89.751 22.889 130.711l54.212 231.906c0.602 4.819 4.216 13.854 3.012 16.866-7.867 18.614-13.6 40.208-16.163 62.764l-0.1 1.085c-2.409 25.901-0.602 50.598 5.421 72.885 10.24 39.755 34.334 75.294 71.078 87.944 24.094 8.433 49.393 4.819 65.054-4.819 16.866-9.638 27.708-24.696 33.129-46.984 5.421-22.889 1.205-50.598-3.012-71.078-10.24-45.779-23.492-80.113-35.539-124.687-6.024-21.685-12.047-44.574-7.228-68.066 5.421-21.685 16.866-36.744 31.925-48.188 16.264-11.445 34.936-18.071 61.44-16.866 46.381 1.807 78.306 31.322 99.991 59.031 35.112 49.44 57.863 109.903 62.58 175.362l0.065 1.128c3.012 22.889 4.819 49.393 3.012 75.896-3.614 48.188-18.673 86.739-42.165 117.459-24.559 29.661-57.115 51.897-94.366 63.472l-1.408 0.377c-26.728 8.533-57.471 13.45-89.363 13.45-18.226 0-36.078-1.606-53.42-4.685l1.833 0.27c-81.093-12.646-148.299-62.752-184.266-131.738l-0.656-1.382c-20.104-36.504-31.932-80.008-31.932-126.274 0-0.713 0.003-1.425 0.008-2.136l-0.001 0.109c0-39.755 10.24-70.475 25.901-93.967 4.819-7.831 12.047-13.854 16.866-22.889 7.228-12.047-0.602-30.118-4.216-43.369-4.216-16.264-4.819-38.551-23.492-38.551-7.228 0-17.468 5.421-24.094 9.035-48.791 27.106-78.306 76.499-90.353 140.348-3.365 17.891-5.29 38.474-5.29 59.506 0 58.512 14.898 113.545 41.108 161.512l-0.882-1.762c31.151 56.253 75.528 101.788 129.085 133.436l1.625 0.889c42.291 25.119 91.914 42.957 144.881 50.358l2.093 0.24c19.275 3.012 39.153 3.614 60.235 4.819 63.247 3.012 120.471-11.445 162.635-30.118 45.779-20.48 81.92-47.586 112.64-81.318 31.322-34.334 54.212-74.089 69.271-124.085 7.228-26.504 15.059-54.212 15.059-86.136 0-32.527-7.228-60.838-12.047-89.148-12.615-100.784-66.316-187.006-143.526-242.638l-1.039-0.712c-40.105-25.789-89.067-41.113-141.608-41.113-3.158 0-6.303 0.055-9.435 0.165l0.454-0.013c-29.515 1.807-54.212 10.24-74.089 21.685-21.041 10.765-38.054 26.811-49.688 46.424l-0.307 0.56z" />
<glyph unicode="&#xe916;" glyph-name="shopping-cart" horiz-adv-x="1229" d="M1210.368 710.144l-169.301-375.467c-8.268-18.963-26.341-32.231-47.64-33.444l-0.146-0.007-486.059-32.085 27.989-80.555h529.749c62.209 0 112.64-50.431 112.64-112.64s-50.431-112.64-112.64-112.64c-62.209 0-112.64 50.431-112.64 112.64v0h-525.653c0-62.209-50.431-112.64-112.64-112.64s-112.64 50.431-112.64 112.64c0 62.209 50.431 112.64 112.64 112.64v0h101.717l-217.088 619.861h-129.024c-31.105 0-56.32 25.215-56.32 56.32s25.215 56.32 56.32 56.32v0h169.301c24.576 0 45.056-16.384 53.248-38.229l32.768-93.525h833.536c31.247-0.061 56.554-25.406 56.554-56.661 0-8.146-1.719-15.89-4.814-22.89l0.143 0.362zM364.544 676.693l103.765-297.643 484.011 32.768 119.467 264.875z" />
<glyph unicode="&#xe917;" glyph-name="tumblr" horiz-adv-x="663" d="M602.353 47.435c-62.587-33.031-136.786-52.42-215.514-52.42-1.316 0-2.631 0.005-3.944 0.016l0.201-0.001c-43.369 0-69.271 5.421-102.4 16.866-33.443 10.533-62.366 26.81-87.085 47.874l0.346-0.288c-21.134 17.476-37.906 39.462-48.953 64.538l-0.44 1.119c-8.948 26.588-14.111 57.207-14.111 89.032 0 4.278 0.093 8.534 0.278 12.766l-0.021-0.603v337.92h-130.108v136.734c37.346 12.047 81.318 30.118 108.424 53.007 26.504 22.889 48.188 50.598 64.452 82.522 17.142 35.819 29.099 77.436 33.597 121.263l0.134 1.617h136.132v-222.871h221.666v-172.273h-221.666v-246.965c0-56.019-0.602-88.546 5.421-104.207s20.48-31.925 36.141-41.562c21.685-12.649 45.779-19.275 72.885-19.275 48.188 0 96.979 15.661 144.565 47.586z" />
<glyph unicode="&#xe918;" glyph-name="twitter" horiz-adv-x="1170" d="M795.794 921.966c3.996 0.233 8.67 0.366 13.374 0.366 69.501 0 132.223-29.023 176.708-75.609l0.089-0.094c57.637 9.276 109.172 29.571 154.452 58.738l-1.584-0.955c-15.549-45.5-42.636-83.675-77.813-112.286l-0.449-0.354c-7.314-5.851-16.091-14.629-26.331-18.286v-0.731c51.931 0.731 95.086 24.137 136.046 36.571-21.943-34.377-50.469-68.754-81.189-93.623l-38.034-29.989c0.731-54.857 0-107.52-10.971-154.331-59.977-269.166-218.697-452.023-470.309-530.286-59.783-18.035-128.487-28.416-199.615-28.416-49.46 0-97.747 5.020-144.38 14.577l4.613-0.79c-51.2 13.166-98.011 27.063-141.166 46.080-24.137 10.971-46.811 21.943-68.023 35.109l-21.211 13.166c23.406-0.731 51.2-7.314 76.8-2.926 23.406 3.657 46.811 2.926 68.754 7.314 54.277 10.963 102.502 28.941 146.743 53.268l-2.652-1.336c19.749 11.703 50.469 25.6 65.097 43.154-103.995 2.908-191.406 70.767-223.311 164.325l-0.506 1.71c23.406-2.194 90.697-8.777 106.789 5.12-29.257 1.463-58.514 18.286-78.263 31.451-68.386 40.8-113.478 114.398-113.478 198.528 0 2.463 0.039 4.916 0.115 7.36l-0.009-0.357 24.869-11.703c15.36-6.583 31.451-10.24 50.469-13.897 7.314-2.194 23.406-6.583 32.914-2.926h-1.463c-11.703 13.897-31.451 23.406-43.886 38.034-36.933 42.754-59.431 98.874-59.431 160.248 0 44.329 11.736 85.916 32.271 121.824l-0.634-1.204 0.731-0.731c5.12-10.24 14.629-16.823 21.943-25.6 119.493-127.95 285.197-211.422 470.369-223.704l2.134-0.113c-10.971 31.451-7.314 81.92 1.463 112.64 22.007 91.501 95.416 161.231 187.292 177.529l1.417 0.208 29.257 2.926z" />
<glyph unicode="&#xe919;" glyph-name="users" horiz-adv-x="1408" d="M1405.867-0.427c-0.241-23.38-19.25-42.24-42.665-42.24-0.001 0-0.002 0-0.002 0h-315.733c23.467 5.547 40.96 26.453 40.96 51.627 0 0 0 192-140.8 261.973-59.733 29.867-64 24.32-93.867 31.147l0.853 83.2s-32.853 25.173-43.093 103.68c-20.907-5.547-27.307 24.32-28.587 43.52-1.28 18.347-11.947 75.947 12.8 70.827-4.693 38.4-8.533 72.96-6.827 91.307 6.4 64.853 68.693 132.267 164.693 136.96 113.067-4.693 157.867-72.107 164.267-136.533 1.707-18.773-2.133-53.333-7.253-91.733 25.173 5.12 14.080-52.48 12.8-70.827-1.28-19.2-8.107-49.067-28.587-43.093-10.24-78.507-43.093-103.68-43.093-103.68l0.853-82.773s20.907-11.947 108.373-48.213c87.893-36.267 60.587-9.387 132.267-44.8 112.64-55.893 112.64-209.92 112.64-209.92zM649.813 337.067l-0.853 91.307s35.84 27.307 46.933 113.92c23.040-6.827 30.293 26.027 31.573 47.36 1.707 20.053 13.653 83.2-14.080 77.653 5.547 42.24 10.24 80.64 8.107 100.693-6.827 70.827-56.32 145.067-180.48 150.187-105.387-5.12-174.080-79.36-180.907-150.187-2.133-20.48 2.133-58.453 7.68-100.693-27.733 5.547-15.787-57.6-14.507-78.080 1.28-20.907 8.533-53.76 31.147-47.36 11.52-86.187 47.36-113.92 47.36-113.92l-0.853-91.733s-22.613-14.080-119.467-53.76c-96.427-40.107-66.133-8.533-144.64-47.36-124.16-61.44-124.16-231.253-124.16-231.253 0-25.6 20.907-46.507 46.933-46.507h901.973c25.6 0 46.507 20.907 46.507 46.507 0 0 0 169.813-124.16 231.253-78.933 38.827-48.64 8.96-145.067 49.067-96.427 39.68-119.467 52.907-119.467 52.907z" />
<glyph unicode="&#xe91a;" glyph-name="view" horiz-adv-x="1707" d="M1681.92 466.773v-5.973c-2.56-13.653-8.533-25.6-17.92-34.987-17.067-21.333-36.693-40.96-55.467-60.587-100.595-104.256-216.434-192.888-344.123-262.521l-7.45-3.719c-83.627-43.52-172.373-78.507-264.533-95.573-100.693-18.773-202.24-17.067-302.080 4.267-181.521 47.034-339.134 131.563-470.812 245.302l1.479-1.249c-67.214 53.063-126.718 110.132-180.349 172.403l-1.411 1.677c-10.75 11.779-17.334 27.521-17.334 44.8s6.584 33.021 17.381 44.852l-0.047-0.052c113.369 131.118 248.156 240.045 399.558 322.256l7.482 3.717c85.333 43.52 174.080 78.507 266.24 95.573 42.412 8.463 91.17 13.306 141.060 13.306 57.36 0 113.225-6.402 166.92-18.531l-5.046 0.958c174.080-37.547 331.093-132.267 469.333-244.053 64-52.053 127.147-109.227 179.2-173.227 9.417-9.992 15.866-22.877 17.878-37.186l0.042-0.361v-4.267l0.853-3.413v-3.413zM852.48 794.453c-4.868 0.272-10.565 0.427-16.297 0.427-172.018 0-311.467-139.448-311.467-311.467s139.448-311.467 311.467-311.467c5.733 0 11.429 0.155 17.086 0.461l-0.789-0.034c164.86 8.904 295.169 144.754 295.169 311.040s-130.309 302.136-294.381 311.006l-0.789 0.034zM1007.787 482.987c0.272 3.453 0.427 7.476 0.427 11.536 0 86.245-69.915 156.16-156.16 156.16s-156.16-69.915-156.16-156.16c0-4.060 0.155-8.083 0.459-12.065l-0.032 0.529c6.191-81.136 73.548-144.624 155.733-144.624s149.542 63.488 155.701 144.095l0.032 0.529z" />
<glyph unicode="&#xe91b;" glyph-name="youtube" horiz-adv-x="1365" d="M1155.413 915.627h-909.653c-115.2 0-245.76-77.653-245.76-191.147v-564.907c0-113.493 129.707-182.613 245.76-182.613h909.653c116.053 0 209.92 69.12 209.92 182.613v564.907c0 113.493-93.867 191.147-209.92 191.147zM593.92 228.693l-2.56 430.080 299.52-216.747z" />
</font>
</defs>
</svg>
